<svg width="50" height="50" viewBox="0 0 50 50" fill="none" xmlns="http://www.w3.org/2000/svg">
<path d="M50 25C50 38.8071 38.8071 50 25 50C11.1929 50 0 38.8071 0 25C0 11.1929 11.1929 0 25 0C38.8071 0 50 11.1929 50 25Z" fill="white"/>
<path d="M37.9594 13.9238C41.5027 13.9238 44.375 16.8044 44.375 20.3577V35.1782C44.375 40.9055 37.4743 43.7782 33.4299 39.7346L18.6064 24.9141C14.5553 20.8638 17.4155 13.9238 23.1359 13.9238H37.9594Z" fill="#261DE8" fill-opacity="0.5"/>
<path d="M12.0406 36.2012C8.49735 36.2012 5.625 33.3206 5.625 29.7673L5.625 14.9468C5.625 9.21955 12.5257 6.34681 16.5701 10.3904L31.3936 25.2109C35.4447 29.2612 32.5845 36.2012 26.8641 36.2012H12.0406Z" fill="#E4001D" fill-opacity="0.5"/>
</svg>
